<svg width="6" height="11" viewBox="0 0 6 11" fill="none" xmlns="http://www.w3.org/2000/svg">
<path d="M5.65505 4.46741L1.41005 0.229905C1.34033 0.159609 1.25737 0.103814 1.16598 0.065737C1.07459 0.0276605 0.976556 0.00805664 0.877547 0.00805664C0.778539 0.00805664 0.680509 0.0276605 0.589115 0.065737C0.49772 0.103814 0.41477 0.159609 0.345047 0.229905C0.205359 0.370427 0.126953 0.560516 0.126953 0.758655C0.126953 0.956795 0.205359 1.14688 0.345047 1.28741L4.05755 5.03741L0.345047 8.7499C0.205359 8.89043 0.126953 9.08051 0.126953 9.27865C0.126953 9.47679 0.205359 9.66688 0.345047 9.8074C0.414508 9.87827 0.497342 9.93465 0.588749 9.97327C0.680155 10.0119 0.778317 10.032 0.877547 10.0324C0.976778 10.032 1.07494 10.0119 1.16635 9.97327C1.25775 9.93465 1.34059 9.87827 1.41005 9.8074L5.65505 5.56991C5.73118 5.49967 5.79193 5.41443 5.83349 5.31956C5.87504 5.22469 5.8965 5.12223 5.8965 5.01865C5.8965 4.91508 5.87504 4.81262 5.83349 4.71775C5.79193 4.62288 5.73118 4.53764 5.65505 4.46741Z" fill="#D94D4D"/>
</svg>
