<svg width="14" height="8" viewBox="0 0 14 8" fill="none" xmlns="http://www.w3.org/2000/svg">
<path d="M7.65082 7.24508L12.83 2.05675C12.9159 1.97154 12.9841 1.87015 13.0306 1.75845C13.0772 1.64674 13.1011 1.52693 13.1011 1.40592C13.1011 1.28491 13.0772 1.16509 13.0306 1.05339C12.9841 0.941685 12.9159 0.840301 12.83 0.755085C12.6582 0.584355 12.4259 0.488525 12.1837 0.488525C11.9416 0.488525 11.7092 0.584355 11.5375 0.755085L6.95415 5.29258L2.41665 0.755085C2.24491 0.584355 2.01257 0.488525 1.7704 0.488525C1.52823 0.488525 1.2959 0.584355 1.12415 0.755085C1.03754 0.839982 0.968634 0.941223 0.921429 1.05294C0.874224 1.16466 0.849659 1.28464 0.849155 1.40592C0.849659 1.5272 0.874224 1.64718 0.921429 1.75889C0.968634 1.87061 1.03754 1.97186 1.12415 2.05675L6.30332 7.24508C6.38916 7.33813 6.49334 7.41239 6.6093 7.46318C6.72526 7.51397 6.85048 7.54019 6.97707 7.54019C7.10366 7.54019 7.22888 7.51397 7.34484 7.46318C7.4608 7.41239 7.56498 7.33813 7.65082 7.24508Z" fill="#D94D4D"/>
</svg>
