<svg width="20" height="21" viewBox="0 0 20 21" fill="none" xmlns="http://www.w3.org/2000/svg">
<path d="M17.9167 8.91668H5.89921L11.1242 3.70751C11.4224 3.40936 11.5899 3.00499 11.5899 2.58334C11.5899 2.1617 11.4224 1.75732 11.1242 1.45918C10.8261 1.16103 10.4217 0.99353 10 0.99353C9.57839 0.99353 9.17402 1.16103 8.87587 1.45918L0.959206 9.37584C0.815058 9.52642 0.702064 9.70399 0.626706 9.89834C0.468344 10.2838 0.468344 10.7162 0.626706 11.1017C0.702064 11.296 0.815058 11.4736 0.959206 11.6242L8.87587 19.5408C9.02306 19.6892 9.19818 19.807 9.39113 19.8874C9.58407 19.9678 9.79102 20.0092 10 20.0092C10.2091 20.0092 10.416 19.9678 10.609 19.8874C10.8019 19.807 10.977 19.6892 11.1242 19.5408C11.2726 19.3936 11.3904 19.2185 11.4708 19.0256C11.5512 18.8326 11.5926 18.6257 11.5926 18.4167C11.5926 18.2077 11.5512 18.0007 11.4708 17.8078C11.3904 17.6148 11.2726 17.4397 11.1242 17.2925L5.89921 12.0833H17.9167C18.3366 12.0833 18.7394 11.9165 19.0363 11.6196C19.3332 11.3227 19.5 10.9199 19.5 10.5C19.5 10.0801 19.3332 9.67736 19.0363 9.38042C18.7394 9.08349 18.3366 8.91668 17.9167 8.91668Z" fill="#545454"/>
</svg>
